<svg width="393" height="28" viewBox="0 0 393 28" fill="none" xmlns="http://www.w3.org/2000/svg">
<path d="M135.435 27.1999C131.355 27.1999 129.315 24.7821 129.315 20.551V19.0399H133.244V20.8533C133.244 22.7421 134.075 23.4221 135.398 23.4221C136.72 23.4221 137.551 22.7421 137.551 20.7777C137.551 18.5866 136.72 17.1888 134 14.8088C130.524 11.7489 129.391 9.59552 129.391 6.57331C129.391 2.41777 131.544 0 135.586 0C139.629 0 141.631 2.41777 141.631 6.64887V7.74442H137.702V6.38442C137.702 4.49554 136.946 3.77777 135.624 3.77777C134.302 3.77777 133.546 4.49554 133.546 6.30887C133.546 8.23553 134.415 9.6333 137.135 12.0133C140.611 15.0733 141.706 17.1888 141.706 20.4755C141.706 24.7821 139.515 27.1999 135.435 27.1999Z" fill="#100101"/>
<path d="M147.508 25.1693V5.33606H143.706V2.03052H154.945V5.33606H151.144V25.1693H147.508Z" fill="#100101"/>
<path d="M162.466 25.4999C158.896 25.4999 156.945 23.3843 156.945 19.6821V7.51771C156.945 3.8155 158.896 1.69995 162.466 1.69995C166.036 1.69995 167.986 3.8155 167.986 7.51771V19.6821C167.986 23.3843 166.036 25.4999 162.466 25.4999ZM162.466 22.1943C163.623 22.1943 164.35 21.5663 164.35 19.9135V7.28632C164.35 5.63355 163.623 5.0055 162.466 5.0055C161.309 5.0055 160.581 5.63355 160.581 7.28632V19.9135C160.581 21.5663 161.309 22.1943 162.466 22.1943Z" fill="#100101"/>
<path d="M169.986 25.1693V2.03052H175.374C179.142 2.03052 180.762 3.78246 180.762 7.35244V8.77383C180.762 11.1538 180.002 12.6744 178.382 13.3355V13.4016C180.2 13.9635 180.795 15.6824 180.795 18.2938V22.3596C180.795 23.4835 180.828 24.3099 181.192 25.1693H177.489C177.291 24.5743 177.159 24.2107 177.159 22.3266V18.0955C177.159 15.9469 176.531 15.2527 174.878 15.2527H173.622V25.1693H169.986ZM173.622 11.9472H174.944C176.299 11.9472 177.126 11.3522 177.126 9.50105V7.71606C177.126 6.06328 176.564 5.33606 175.275 5.33606H173.622V11.9472Z" fill="#100101"/>
<path d="M187.588 25.1693V15.3188L183.192 2.03052H187.059L189.538 10.5258H189.604L192.084 2.03052H195.62L191.224 15.3188V25.1693H187.588Z" fill="#100101"/>
<path d="M197.62 26.8222V0.377808H208.614V4.15557H201.776V11.5222H207.14V15.3H201.776V26.8222H197.62Z" fill="#FF470D"/>
<path d="M210.614 25.1693V2.03052H214.25V21.8638H220.233V25.1693H210.614Z" fill="#FF470D"/>
<path d="M222.233 25.1693L226.001 2.03052H230.926L234.695 25.1693H231.059L230.398 20.5746V20.6407H226.266L225.605 25.1693H222.233ZM226.695 17.5005H229.968L228.348 6.06328H228.282L226.695 17.5005Z" fill="#FF470D"/>
<path d="M236.695 25.1693V2.03052H241.885L244.198 18.5913H244.265L246.578 2.03052H251.768V25.1693H248.33V7.64994H248.264L245.62 25.1693H242.579L239.934 7.64994H239.868V25.1693H236.695Z" fill="#FF470D"/>
<path d="M253.768 25.1693V2.03052H263.685V5.33606H257.404V11.4513H262.396V14.7569H257.404V21.8638H263.685V25.1693H253.768Z" fill="#FF470D"/>
</svg>
