<svg xmlns="http://www.w3.org/2000/svg" width="119" height="25" viewBox="0 0 119 25" fill="none">
  <path d="M5.45859 24.3398C1.85859 24.3398 0.0585938 22.2065 0.0585938 18.4732V17.1398H3.52526V18.7398C3.52526 20.4065 4.25859 21.0065 5.42526 21.0065C6.59192 21.0065 7.32526 20.4065 7.32526 18.6732C7.32526 16.7398 6.59192 15.5065 4.19192 13.4065C1.12526 10.7065 0.12526 8.8065 0.12526 6.13984C0.12526 2.47318 2.02526 0.339844 5.59192 0.339844C9.15859 0.339844 10.9253 2.47318 10.9253 6.20651V7.17317H7.45859V5.97317C7.45859 4.30651 6.79192 3.67318 5.62526 3.67318C4.45859 3.67318 3.79192 4.30651 3.79192 5.90651C3.79192 7.6065 4.55859 8.83984 6.95859 10.9398C10.0253 13.6398 10.9919 15.5065 10.9919 18.4065C10.9919 22.2065 9.05859 24.3398 5.45859 24.3398Z" fill="#100101"/>
  <path d="M16.111 24.3405V6.84049H12.7568V3.92383H22.6735V6.84049H19.3193V24.3405H16.111Z" fill="#100101"/>
  <path d="M29.3083 24.3398C26.1583 24.3398 24.4375 22.4732 24.4375 19.2065V8.47317C24.4375 5.20651 26.1583 3.33984 29.3083 3.33984C32.4583 3.33984 34.1792 5.20651 34.1792 8.47317V19.2065C34.1792 22.4732 32.4583 24.3398 29.3083 24.3398ZM29.3083 21.4232C30.3292 21.4232 30.9708 20.869 30.9708 19.4107V8.26901C30.9708 6.81067 30.3292 6.25651 29.3083 6.25651C28.2875 6.25651 27.6458 6.81067 27.6458 8.26901V19.4107C27.6458 20.869 28.2875 21.4232 29.3083 21.4232Z" fill="#100101"/>
  <path d="M35.9443 24.3405V3.92383H40.6985C44.0235 3.92383 45.4527 5.46966 45.4527 8.61966V9.87382C45.4527 11.9738 44.7818 13.3155 43.3527 13.8988V13.9572C44.9568 14.453 45.4818 15.9697 45.4818 18.2738V21.8613C45.4818 22.853 45.511 23.5821 45.8318 24.3405H42.5652C42.3902 23.8155 42.2735 23.4946 42.2735 21.8321V18.0988C42.2735 16.203 41.7193 15.5905 40.261 15.5905H39.1527V24.3405H35.9443ZM39.1527 12.6738H40.3193C41.5152 12.6738 42.2443 12.1488 42.2443 10.5155V8.94049C42.2443 7.48216 41.7485 6.84049 40.611 6.84049H39.1527V12.6738Z" fill="#100101"/>
  <path d="M51.4758 24.3405V15.6488L47.5967 3.92383H51.0092L53.1967 11.4197H53.255L55.4425 3.92383H58.5633L54.6842 15.6488V24.3405H51.4758Z" fill="#100101"/>
  <path d="M60.3281 24.3392V1.00586H70.0281V4.33919H63.9948V10.8392H68.7281V14.1725H63.9948V24.3392H60.3281Z" fill="#FF470D"/>
  <path d="M71.793 24.3405V3.92383H75.0013V21.4238H80.2805V24.3405H71.793Z" fill="#FF470D"/>
  <path d="M82.0449 24.3405L85.3699 3.92383H89.7157L93.0407 24.3405H89.8324L89.2491 20.2863V20.3446H85.6033L85.0199 24.3405H82.0449ZM85.9824 17.5738H88.8699L87.4408 7.48216H87.3824L85.9824 17.5738Z" fill="#FF470D"/>
  <path d="M94.8057 24.3405V3.92383H99.3848L101.426 18.5363H101.485L103.526 3.92383H108.106V24.3405H105.072V8.88216H105.014L102.681 24.3405H99.9973L97.664 8.88216H97.6057V24.3405H94.8057Z" fill="#FF470D"/>
  <path d="M109.87 24.3405V3.92383H118.62V6.84049H113.078V12.2363H117.483V15.153H113.078V21.4238H118.62V24.3405H109.87Z" fill="#FF470D"/>
</svg>
