<svg xmlns="http://www.w3.org/2000/svg" width="19" height="23" viewBox="0 0 19 23" fill="none">
  <path d="M13.8358 0.199951C13.8358 0.199951 12.2 0.239574 10.7 1.73957C9.19999 3.23957 9.45299 5.26032 9.45299 5.26032C9.45299 5.26032 10.9379 5.53184 12.5226 3.94712C14.1074 2.36239 13.8358 0.199951 13.8358 0.199951Z" fill="#090A0A"/>
  <path d="M9.62452 6.53955C8.51885 6.53199 7.83965 5.57729 5.9566 5.57729C4.26225 5.57729 2.56373 6.67046 1.84151 7.72823C1.12264 8.78106 0.5 9.93577 0.5 12.2792C0.5 14.6226 1.62832 18.6527 4.40285 21.381C4.878 21.8483 5.50698 22.1995 6.22454 22.2212C7.5151 22.2603 8.30756 21.2942 9.93774 21.2942C11.5679 21.2942 12.0585 22.2212 13.5302 22.2212C14.1994 22.2212 14.9626 21.9164 15.7038 21.1282C16.6547 20.1169 17.8347 18.1908 18.4358 16.3433C18.4358 16.3433 15.4258 15.1809 15.4622 11.8301C15.4924 9.05275 17.8509 7.6867 17.8509 7.6867C17.8509 7.6867 16.4735 5.49048 13.5453 5.49048C11.5226 5.5056 10.6169 6.54634 9.62452 6.53955Z" fill="#090A0A"/>
</svg>