<svg xmlns="http://www.w3.org/2000/svg" width="25" height="25" viewBox="0 0 25 25" fill="none">
  <g clip-path="url(#clip0_583_1144)">
    <path d="M24.2135 12.4762C24.2135 11.6605 24.1474 10.8403 24.0063 10.0378H12.6875V14.6588H19.1692C18.9003 16.1492 18.036 17.4676 16.7705 18.3053V21.3037H20.6375C22.9083 19.2137 24.2135 16.1271 24.2135 12.4762Z" fill="#4285F4"/>
    <path d="M12.6875 24.2008C15.9239 24.2008 18.6533 23.1381 20.6419 21.3038L16.7749 18.3055C15.6991 19.0374 14.3101 19.4519 12.6919 19.4519C9.56127 19.4519 6.90685 17.3399 5.95444 14.5002H1.96399V17.5912C4.0011 21.6434 8.15028 24.2008 12.6875 24.2008Z" fill="#34A853"/>
    <path d="M5.95004 14.5004C5.44738 13.0101 5.44738 11.3962 5.95004 9.90588V6.81494H1.964C0.261999 10.2057 0.261999 14.2006 1.964 17.5914L5.95004 14.5004Z" fill="#FBBC04"/>
    <path d="M12.6875 4.94961C14.3983 4.92316 16.0518 5.56692 17.2908 6.74862L20.7169 3.32257C18.5475 1.28546 15.6682 0.165485 12.6875 0.20076C8.15028 0.20076 4.0011 2.75817 1.96399 6.81476L5.95003 9.9057C6.89803 7.06168 9.55686 4.94961 12.6875 4.94961Z" fill="#EA4335"/>
  </g>
  <defs>
    <clipPath id="clip0_583_1144">
      <rect width="24" height="24" fill="white" transform="translate(0.5 0.199951)"/>
    </clipPath>
  </defs>
</svg> 